# xmcd CD database file
#
# Track frame offsets:
#	150
#	12478
#	26210
#	47745
#	60208
#	97727
#	113648
#	127380
#	142138
#	155924
#	172275
#	184009
#	197039
#	212445
#	224071
#	237560
#	259635
#	281035
#	301976
#
# Disc length: 4333 seconds
#
# Revision: 2
# Processed by: cddbd v1.5.2PL0 Copyright (c) Steve Scherf et al.
# Submitted via: CDex 1.51
#
DISCID=2810eb13
DTITLE=Various Artist - Salsa de Cuba
DYEAR=1900
DGENRE=Salsa
TTITLE0=Celia Cruz et la Sonora Matancera - Burudanga  [1953]
TTITLE1=Compay Secundo - La Cabalza  [1950]
TTITLE2=La Lupe avec Tito Puente - La Lloradora  [1955]
TTITLE3=Benny More - Que Caigan Los Dientes  [1953]
TTITLE4=Fania All Stars - Por Eso Yo Canto Salsa  [1955]
TTITLE5=La Sonora Poncena - La Maleta  [1955]
TTITLE6=Ismael Riviera - El Negro Bembon  [1955]
TTITLE7=Tito Puente - Oye Lo Que Tiene Salsa  [1954]
TTITLE8=Benny More - El Santo De Tia Juliana  [1953]
TTITLE9=Celina Gonzales - Alborada Guajina  [1955]
TTITLE10=Celia Cruz et la Sonora Matancera - Contestation Al Marinero  [1955]
TTITLE11=La Sonora Mantacera - Rico Guaguanco  [1953]
TTITLE12=Benny More - El Canoneros  [1952]
TTITLE13=Tony Camargo - Baila Vicente  [1951]
TTITLE14=Compay Secundo - Un Jardinero De Amor  [1950]
TTITLE15=Celia Cruz et la Sonora Matancera - Quimbara  [1955]
TTITLE16=Ray Barreto - Ritmo En El Corazon  [1955]
TTITLE17=Bobby Cruz - La Calle Esta Durisima  [1955]
TTITLE18=Cheo Feliciano - Salsaludando  [1955]
EXTD=
EXTT0=
EXTT1=
EXTT2=
EXTT3=
EXTT4=
EXTT5=
EXTT6=
EXTT7=
EXTT8=
EXTT9=
EXTT10=
EXTT11=
EXTT12=
EXTT13=
EXTT14=
EXTT15=
EXTT16=
EXTT17=
EXTT18=
PLAYORDER=
